<mxfile host="app.diagrams.net" modified="2023-11-17T17:16:03.573Z" agent="Mozilla/5.0 (Windows NT 10.0; Win64; x64) AppleWebKit/537.36 (KHTML, like Gecko) Chrome/119.0.0.0 Safari/537.36" etag="cAjQCAksDW8R06Og7-LG" version="22.1.3" type="device">
  <diagram name="Page-1" id="PFca3m0gFsXZYnU675qT">
    <mxGraphModel dx="1050" dy="557" grid="1" gridSize="10" guides="1" tooltips="1" connect="1" arrows="1" fold="1" page="1" pageScale="1" pageWidth="1169" pageHeight="827" math="0" shadow="0">
      <root>
        <mxCell id="0" />
        <mxCell id="1" parent="0" />
        <mxCell id="ozAuj4fqt99PXr9e3eOP-6" value="Micro Controller" style="rounded=0;whiteSpace=wrap;html=1;fillColor=none;verticalAlign=top;fontStyle=1;fontSize=14;" vertex="1" parent="1">
          <mxGeometry x="305" y="219" width="225" height="390" as="geometry" />
        </mxCell>
        <mxCell id="ozAuj4fqt99PXr9e3eOP-3" value="RPC" style="rounded=1;whiteSpace=wrap;html=1;" vertex="1" parent="1">
          <mxGeometry x="345" y="399" width="120" height="100" as="geometry" />
        </mxCell>
        <mxCell id="ozAuj4fqt99PXr9e3eOP-4" value="App" style="rounded=1;whiteSpace=wrap;html=1;" vertex="1" parent="1">
          <mxGeometry x="345" y="259" width="120" height="100" as="geometry" />
        </mxCell>
        <mxCell id="ozAuj4fqt99PXr9e3eOP-5" value="" style="endArrow=classic;startArrow=classic;html=1;rounded=0;exitX=0.5;exitY=0;exitDx=0;exitDy=0;entryX=0.5;entryY=1;entryDx=0;entryDy=0;" edge="1" parent="1" source="ozAuj4fqt99PXr9e3eOP-3" target="ozAuj4fqt99PXr9e3eOP-4">
          <mxGeometry width="50" height="50" relative="1" as="geometry">
            <mxPoint x="615" y="429" as="sourcePoint" />
            <mxPoint x="665" y="379" as="targetPoint" />
          </mxGeometry>
        </mxCell>
        <mxCell id="ozAuj4fqt99PXr9e3eOP-7" value="UART" style="rounded=1;whiteSpace=wrap;html=1;" vertex="1" parent="1">
          <mxGeometry x="345" y="530" width="120" height="50" as="geometry" />
        </mxCell>
        <mxCell id="ozAuj4fqt99PXr9e3eOP-8" value="" style="endArrow=classic;startArrow=classic;html=1;rounded=0;exitX=0.5;exitY=0;exitDx=0;exitDy=0;entryX=0.5;entryY=1;entryDx=0;entryDy=0;" edge="1" parent="1" source="ozAuj4fqt99PXr9e3eOP-7" target="ozAuj4fqt99PXr9e3eOP-3">
          <mxGeometry width="50" height="50" relative="1" as="geometry">
            <mxPoint x="404.58000000000004" y="529" as="sourcePoint" />
            <mxPoint x="404.58000000000004" y="489" as="targetPoint" />
          </mxGeometry>
        </mxCell>
        <mxCell id="ozAuj4fqt99PXr9e3eOP-14" value="Personal Computer" style="rounded=0;whiteSpace=wrap;html=1;fillColor=none;verticalAlign=top;fontStyle=1;fontSize=14;" vertex="1" parent="1">
          <mxGeometry x="590" y="219" width="395" height="390" as="geometry" />
        </mxCell>
        <mxCell id="ozAuj4fqt99PXr9e3eOP-16" value="App (localhost)" style="rounded=1;whiteSpace=wrap;html=1;verticalAlign=top;" vertex="1" parent="1">
          <mxGeometry x="665" y="289" width="120" height="290" as="geometry" />
        </mxCell>
        <mxCell id="ozAuj4fqt99PXr9e3eOP-19" value="virtual com port" style="rounded=1;whiteSpace=wrap;html=1;" vertex="1" parent="1">
          <mxGeometry x="665" y="529" width="120" height="51" as="geometry" />
        </mxCell>
        <mxCell id="ozAuj4fqt99PXr9e3eOP-23" value="RPC" style="rounded=1;whiteSpace=wrap;html=1;" vertex="1" parent="1">
          <mxGeometry x="665" y="449" width="120" height="50" as="geometry" />
        </mxCell>
        <mxCell id="ozAuj4fqt99PXr9e3eOP-25" value="Web framework&lt;br&gt;(Flask)" style="rounded=1;whiteSpace=wrap;html=1;" vertex="1" parent="1">
          <mxGeometry x="665" y="349" width="120" height="67.5" as="geometry" />
        </mxCell>
        <mxCell id="ozAuj4fqt99PXr9e3eOP-26" value="Web browser" style="rounded=1;whiteSpace=wrap;html=1;" vertex="1" parent="1">
          <mxGeometry x="835" y="289" width="130" height="130" as="geometry" />
        </mxCell>
        <mxCell id="ozAuj4fqt99PXr9e3eOP-36" value="" style="endArrow=classic;startArrow=classic;html=1;rounded=0;" edge="1" parent="1" source="ozAuj4fqt99PXr9e3eOP-23" target="ozAuj4fqt99PXr9e3eOP-25">
          <mxGeometry width="50" height="50" relative="1" as="geometry">
            <mxPoint x="724.7900000000001" y="419" as="sourcePoint" />
            <mxPoint x="725" y="419" as="targetPoint" />
          </mxGeometry>
        </mxCell>
        <mxCell id="ozAuj4fqt99PXr9e3eOP-39" value="" style="endArrow=classic;startArrow=classic;html=1;rounded=0;exitX=0.5;exitY=0;exitDx=0;exitDy=0;entryX=0.5;entryY=1;entryDx=0;entryDy=0;" edge="1" parent="1" source="ozAuj4fqt99PXr9e3eOP-19" target="ozAuj4fqt99PXr9e3eOP-23">
          <mxGeometry width="50" height="50" relative="1" as="geometry">
            <mxPoint x="735" y="459" as="sourcePoint" />
            <mxPoint x="735" y="427" as="targetPoint" />
          </mxGeometry>
        </mxCell>
        <mxCell id="ozAuj4fqt99PXr9e3eOP-40" value="" style="endArrow=classic;startArrow=classic;html=1;rounded=0;entryX=0;entryY=0.25;entryDx=0;entryDy=0;exitX=1.003;exitY=0.111;exitDx=0;exitDy=0;exitPerimeter=0;" edge="1" parent="1" source="ozAuj4fqt99PXr9e3eOP-16" target="ozAuj4fqt99PXr9e3eOP-26">
          <mxGeometry width="50" height="50" relative="1" as="geometry">
            <mxPoint x="735" y="369" as="sourcePoint" />
            <mxPoint x="785" y="319" as="targetPoint" />
          </mxGeometry>
        </mxCell>
        <mxCell id="ozAuj4fqt99PXr9e3eOP-42" value="Tof 1" style="rounded=1;whiteSpace=wrap;html=1;" vertex="1" parent="1">
          <mxGeometry x="185" y="289" width="60" height="80" as="geometry" />
        </mxCell>
        <mxCell id="ozAuj4fqt99PXr9e3eOP-43" value="Tof 2" style="rounded=1;whiteSpace=wrap;html=1;" vertex="1" parent="1">
          <mxGeometry x="185" y="489" width="60" height="80" as="geometry" />
        </mxCell>
        <mxCell id="ozAuj4fqt99PXr9e3eOP-44" value="" style="endArrow=classic;startArrow=classic;html=1;rounded=0;exitX=1;exitY=0.5;exitDx=0;exitDy=0;" edge="1" parent="1" source="ozAuj4fqt99PXr9e3eOP-42">
          <mxGeometry width="50" height="50" relative="1" as="geometry">
            <mxPoint x="465" y="449" as="sourcePoint" />
            <mxPoint x="305" y="329" as="targetPoint" />
          </mxGeometry>
        </mxCell>
        <mxCell id="ozAuj4fqt99PXr9e3eOP-45" value="" style="endArrow=classic;startArrow=classic;html=1;rounded=0;exitX=1;exitY=0.5;exitDx=0;exitDy=0;" edge="1" parent="1">
          <mxGeometry width="50" height="50" relative="1" as="geometry">
            <mxPoint x="245" y="528.29" as="sourcePoint" />
            <mxPoint x="305" y="528.29" as="targetPoint" />
          </mxGeometry>
        </mxCell>
        <mxCell id="ozAuj4fqt99PXr9e3eOP-51" value="" style="rounded=1;whiteSpace=wrap;html=1;movable=1;resizable=1;rotatable=1;deletable=1;editable=1;locked=0;connectable=1;" vertex="1" parent="1">
          <mxGeometry x="480" y="530" width="40" height="50" as="geometry" />
        </mxCell>
        <mxCell id="ozAuj4fqt99PXr9e3eOP-46" value="" style="sketch=0;pointerEvents=1;shadow=0;dashed=0;html=1;strokeColor=none;fillColor=#434445;aspect=fixed;labelPosition=center;verticalLabelPosition=bottom;verticalAlign=top;align=center;outlineConnect=0;shape=mxgraph.vvd.wi_fi;movable=1;resizable=1;rotatable=1;deletable=1;editable=1;locked=0;connectable=1;" vertex="1" parent="1">
          <mxGeometry x="490" y="544" width="20" height="20" as="geometry" />
        </mxCell>
        <mxCell id="ozAuj4fqt99PXr9e3eOP-54" style="edgeStyle=orthogonalEdgeStyle;rounded=0;orthogonalLoop=1;jettySize=auto;html=1;exitX=0.5;exitY=1;exitDx=0;exitDy=0;" edge="1" parent="1" source="ozAuj4fqt99PXr9e3eOP-51" target="ozAuj4fqt99PXr9e3eOP-51">
          <mxGeometry relative="1" as="geometry" />
        </mxCell>
        <mxCell id="ozAuj4fqt99PXr9e3eOP-56" value="" style="rounded=1;whiteSpace=wrap;html=1;movable=1;resizable=1;rotatable=1;deletable=1;editable=1;locked=0;connectable=1;" vertex="1" parent="1">
          <mxGeometry x="605" y="530" width="40" height="50" as="geometry" />
        </mxCell>
        <mxCell id="ozAuj4fqt99PXr9e3eOP-47" value="" style="sketch=0;pointerEvents=1;shadow=0;dashed=0;html=1;strokeColor=none;fillColor=#434445;labelPosition=center;verticalLabelPosition=bottom;verticalAlign=top;align=center;outlineConnect=0;shape=mxgraph.vvd.wi_fi;aspect=fixed;direction=north;" vertex="1" parent="1">
          <mxGeometry x="615" y="545" width="20" height="20" as="geometry" />
        </mxCell>
        <mxCell id="ozAuj4fqt99PXr9e3eOP-64" value="" style="endArrow=none;html=1;rounded=0;exitX=1;exitY=0.5;exitDx=0;exitDy=0;entryX=0;entryY=0.5;entryDx=0;entryDy=0;" edge="1" parent="1" source="ozAuj4fqt99PXr9e3eOP-7" target="ozAuj4fqt99PXr9e3eOP-51">
          <mxGeometry width="50" height="50" relative="1" as="geometry">
            <mxPoint x="470" y="590" as="sourcePoint" />
            <mxPoint x="520" y="540" as="targetPoint" />
          </mxGeometry>
        </mxCell>
        <mxCell id="ozAuj4fqt99PXr9e3eOP-65" value="" style="endArrow=none;html=1;rounded=0;exitX=1;exitY=0.5;exitDx=0;exitDy=0;entryX=0;entryY=0.5;entryDx=0;entryDy=0;" edge="1" parent="1" source="ozAuj4fqt99PXr9e3eOP-56" target="ozAuj4fqt99PXr9e3eOP-19">
          <mxGeometry width="50" height="50" relative="1" as="geometry">
            <mxPoint x="620" y="580" as="sourcePoint" />
            <mxPoint x="670" y="530" as="targetPoint" />
          </mxGeometry>
        </mxCell>
      </root>
    </mxGraphModel>
  </diagram>
</mxfile>
